# AST/ASF file generated using VICON BodyLanguage
# -----------------------------------------------
:version 1.10
:name VICON
:units
  mass 1.0
  length 0.45
  angle deg
:documentation
   .ast/.asf automatically generated from VICON data using
   VICON BodyBuilder and BodyLanguage model FoxedUp or BRILLIANT.MOD
:root
   order TX TY TZ RX RY RZ
   axis XYZ
   position 0 0 0  
   orientation 0 0 0 
:bonedata
  begin
     id 1 
     name lhipjoint
     direction 0.671379 -0.66392 0.329334 
     length 2.38647 
     axis 0 0 0  XYZ
  end
  begin
     id 2 
     name lfemur
     direction 0.34202 -0.939693 0  
     length 6.48179  
     axis 0 0 20  XYZ
    dof rx ry rz
    limits (-160.0 20.0)
           (-70.0 70.0)
           (-60.0 70.0)
  end
  begin
     id 3 
     name ltibia
     direction 0.34202 -0.939693 0   
     length 6.86524   
     axis 0 0 20   XYZ
    dof rx
    limits (-10.0 170.0)
  end
  begin
     id 4 
     name lfoot
     direction 0.204886 -0.562919 0.800715   
     length 1.73031   
     axis -90 7.62852e-016 20   XYZ
    dof rx rz
    limits (-45.0 90.0)
           (-70.0 20.0)
  end
  begin
     id 5 
     name ltoes
     direction 1.53548e-011 -4.21841e-011 1   
     length 0.828161   
     axis -90 7.62852e-016 20   XYZ
    dof rx
    limits (-90.0 20.0)
  end
  begin
     id 6 
     name rhipjoint
     direction -0.662732 -0.670855 0.332775   
     length 2.3618  
     axis 0 0 0  XYZ 
  end
  begin
     id 7 
     name rfemur
     direction -0.34202 -0.939693 0   
     length 6.3025   
     axis 0 0 -20   XYZ
    dof rx ry rz
    limits (-160.0 20.0)
           (-70.0 70.0)
           (-70.0 60.0)
  end
  begin
     id 8 
     name rtibia
     direction -0.34202 -0.939693 0   
     length 6.8732   
     axis 0 0 -20   XYZ
    dof rx
    limits (-10.0 170.0)
 end
 begin
     id 9 
     name rfoot
     direction -0.173856 -0.477665 0.861168   
     length 1.54784  
     axis -90 -7.62852e-016 -20   XYZ
    dof rx rz
    limits (-45.0 90.0)
           (-20.0 70.0)
  end
  begin
     id 10 
     name rtoes
     direction -1.53562e-011 -4.21802e-011 1   
     length 0.759618   
     axis -90 -7.62852e-016 -20   XYZ
    dof rx
    limits (-90.0 20.0)
  end
  begin
     id 11 
     name lowerback
     direction -0.0278357 0.999497 -0.0151789   
     length 1.97203   
     axis 0 0 0   XYZ
    dof rx ry rz
    limits (-20.0 45.0)
           (-30.0 30.0)
           (-30.0 30.0)
  end
  begin
     id 12 
     name upperback
     direction -0.00360622 0.997542 0.0699804   
     length 1.94709   
     axis 0 0 0   XYZ
    dof rx ry rz
    limits (-20.0 45.0)
           (-30.0 30.0)
           (-30.0 30.0)
  end
  begin
     id 13 
     name thorax
     direction 0.00907706 0.997048 0.0762461   
     length 1.95722   
     axis 0 0 0   XYZ
    dof rx ry rz
    limits (-20.0 45.0)
           (-30.0 30.0)
           (-30.0 30.0)
  end
  begin
     id 14 
     name lowerneck
     direction -0.0481835 0.99872 -0.0153927   
     length 1.63078   
     axis 0 0 0   XYZ
    dof rx ry rz
    limits (-20.0 45.0)
           (-30.0 30.0)
           (-30.0 30.0)
  end
  begin
     id 15 
     name upperneck
     direction 0.0859716 0.979226 -0.183644   
     length 1.62591   
     axis 0 0 0   XYZ
    dof rx ry rz
    limits (-20.0 45.0)
           (-30.0 30.0)
           (-30.0 30.0)
  end
  begin
     id 16
     name head
     direction 0.0324821 0.997629 -0.0606773  
     length 1.64811  
     axis 0 0 0   XYZ
    dof rx ry rz
    limits (-20.0 45.0)
           (-30.0 30.0)
           (-30.0 30.0)
  end
  begin
     id 17 
     name lclavicle
     direction 0.939609 0.311019 0.142835  
     length 3.70647  
     axis 0 0 0   XYZ
    dof ry rz
    limits (-20.0 10.0)
           (0.0 20.0)
  end
  begin
     id 18 
     name lhumerus
     direction 1 -4.48963e-011 -1.59838e-027   
     length 4.59207   
     axis 180 -30 -90   XYZ
    dof rx ry rz
    limits (-60.0 90.0)
           (-90.0 90.0)
           (-90.0 90.0)
  end
  begin
     id 19
     name lradius
     direction 1 -4.48957e-011 -1.3483e-026   
     length 2.98109   
     axis 180 -30 -90   XYZ
    dof rx
    limits (-10.0 170.0)
  end
  begin
     id 20
     name lwrist
     direction 1 -4.48954e-011 -3.11579e-026   
     length 1.49055   
     axis 2.00652e-014 90 90   XYZ
    dof ry
    limits (-180.0 0.0)
 end
  begin
     id 21 
     name lhand
     direction 1 -4.4911e-011 -6.23158e-026   
     length 0.480203   
     axis 3.97628e-014 90 90   XYZ
    dof rx rz
    limits (-90.0 90.0)
           (-45.0 45.0)
  end
  begin
     id 22 
     name lfingers
     direction 1 -4.48893e-011 -1.24632e-025   
     length 0.387152   
     axis 7.95256e-014 90 90   XYZ
    dof rx
    limits (0.0 90.0)
  end
  begin
     id 23
     name lthumb
     direction 0.707107 -6.35013e-011 0.707107   
     length 0.555875   
     axis -90 45 2.85299e-015   XYZ
    dof rx rz
    limits (-45.0 45.0)
           (-45.0 45.0)
  end
  begin
     id 24 
     name rclavicle
     direction -0.950396 0.30392 0.0661859   
     length 3.70894  
     axis 0 0 0   XYZ 
    dof ry rz
    limits (-10.0 20.0)
           (-20.0 0.0)
  end
  begin
     id 25 
     name rhumerus
     direction -1 -4.48957e-011 -2.96677e-027  
     length 4.76508   
     axis 180 30 90   XYZ
    dof rx ry rz
    limits (-90.0 60.0)
           (-90.0 90.0)
           (-90.0 90.0)
  end
  begin
     id 26 
     name rradius
     direction -1 -4.48974e-011 -1.44501e-026   
     length 2.78902   
     axis 180 30 90   XYZ
    dof rx
    limits (-10.0 170.0)
  end
  begin
     id 27 
     name rwrist
     direction -1 -4.48978e-011 -3.11579e-026   
     length 1.39451   
     axis 2.00652e-014 -90 -90   XYZ
    dof ry
    limits (-180.0 0.0)
  end
  begin
     id 28
     name rhand
     direction -1 -4.48956e-011 -6.23158e-026   
     length 0.721303   
     axis 3.97628e-014 -90 -90   XYZ
    dof rx rz
    limits (-90.0 90.0)
           (-45.0 45.0)
  end
  begin
     id 29
     name rfingers
     direction -1 -4.4899e-011 -1.24632e-025   
     length 0.581533   
     axis 7.95256e-014 -90 -90   XYZ
    dof rx
    limits (0.0 90.0)
  end
  begin
     id 30
     name rthumb
     direction -0.707107 -6.34911e-011 0.707107   
     length 0.834968   
     axis -90 -45 -2.85299e-015   XYZ
    dof rx rz
    limits (-45.0 45.0)
           (-45.0 45.0)
  end
:hierarchy
  begin
    root lhipjoint rhipjoint lowerback
    lhipjoint lfemur
    lfemur ltibia
    ltibia lfoot
    lfoot ltoes
    rhipjoint rfemur
    rfemur rtibia
    rtibia rfoot
    rfoot rtoes
    lowerback upperback
    upperback thorax
    thorax lowerneck lclavicle rclavicle
    lowerneck upperneck
    upperneck head
    lclavicle lhumerus
    lhumerus lradius
    lradius lwrist
    lwrist lhand lthumb
    lhand lfingers
    rclavicle rhumerus
    rhumerus rradius
    rradius rwrist
    rwrist rhand rthumb
    rhand rfingers
  end

#!OML:ASF I:\salsa\salsa 7_09\Patient 1\Session 1\dancerfemale.ASF
:FULLY-SPECIFIED
:DEGREES
1158
root 9.26282 16.4345 2.17217 17.6061 495.756 369.989
lowerback 3.19772 9.15436 10.7744
upperback -7.93386 13.33 -2.84464
thorax -7.22388 5.96289 -9.85721
lowerneck -0.971843 11.2229 1.39707
upperneck 2.85087 14.9619 4.9356
head 0.750198 7.59503 1.40132
rclavicle 1.37658e-014 4.77083e-014
rhumerus 65.247 2.02739 -15.6682
rradius 86.5345
rwrist -7.6175
rhand -6.19369 74.503
rfingers 7.12502
rthumb 19.6462 45.4757
lclavicle 1.37658e-014 4.77083e-014
lhumerus -66.1739 2.20997 90.1819
lradius 86.2373
lwrist 9.60245
lhand -0.811349 28.9516
lfingers 7.12502
lthumb 24.813 57.3618
rfemur -0.212766 -9.87496 26.3142
rtibia 14.9385
rfoot -3.39688 11.0975
rtoes -42.3856
lfemur -43.9492 -4.88131 -6.70704
ltibia 59.5291
lfoot -7.76666 -8.33901
ltoes -7.21373
1159
root 9.26901 16.4236 2.39605 16.5473 499.232 368.461
lowerback 2.84662 9.15327 10.0589
upperback -8.10969 13.2792 -2.91648
thorax -7.35323 5.98142 -9.52153
lowerneck -0.971674 10.2831 1.53938
upperneck 3.37925 13.6911 4.69717
head 0.967075 6.97082 1.32913
rclavicle -9.88208e-014 -4.6118e-014
rhumerus 63.8771 6.33557 -13.5564
rradius 87.7531
rwrist -8.17095
rhand -1.63738 70.2959
rfingers 7.12502
rthumb 24.0212 41.7791
lclavicle -9.88208e-014 -4.6118e-014
lhumerus -67.2827 3.37013 88.4787
lradius 86.896
lwrist 10.0226
lhand -1.03217 29.0523
lfingers 7.12502
lthumb 24.6014 57.4914
rfemur -1.20336 -9.80267 26.5809
rtibia 15.7648
rfoot -3.81875 11.9273
rtoes -44.0637
lfemur -43.9523 -3.22372 -10.387
ltibia 60.2519
lfoot -7.30115 -10.8171
ltoes -8.28548
1160
root 9.25919 16.4068 2.60725 15.3029 502.686 366.588
lowerback 2.45749 9.0222 9.07165
upperback -8.11844 13.0231 -2.85701
thorax -7.39982 5.92858 -8.88064
lowerneck -1.22459 9.50182 0.10002
upperneck 3.97803 12.6454 5.81149
head 1.05592 6.46954 1.91943
rclavicle 4.13224e-014 7.55382e-015
rhumerus 62.85 10.6602 -11.2037
rradius 89.3227
rwrist -8.95238
rhand 3.90665 67.1092
rfingers 7.12502
rthumb 29.3266 39.4021
lclavicle 4.13224e-014 7.55382e-015
lhumerus -68.446 4.71806 87.1811
lradius 87.8122
lwrist 10.5796
lhand -2.90656 31.5
lfingers 7.12502
lthumb 22.8036 60.1721
rfemur -2.47935 -10.8518 26.248
rtibia 17.2534
rfoot -4.49035 13.4339
rtoes -45.5317
lfemur -43.2768 -2.59628 -14.0027
ltibia 59.9276
lfoot -4.92789 -7.80045
ltoes -1.16782
1161
root 9.24857 16.3298 2.8108 14.72 506.601 369.668
lowerback 4.30451 8.95408 12.8109
upperback -7.69846 13.4661 -1.80232
thorax -7.43442 5.92087 -10.0071
lowerneck -0.780492 8.46125 -0.617862
upperneck 4.00942 11.2773 6.23948
head 0.967948 5.78452 2.14023
rclavicle 1.27371e-013 9.14409e-015
rhumerus 61.1051 15.153 -9.52896
rradius 91.1933
rwrist -9.56515
rhand -5.14342 67.9694
rfingers 7.12502
rthumb 20.6556 39.0485
lclavicle 1.27371e-013 9.14409e-015
lhumerus -69.2336 5.4256 85.9339
lradius 88.2801
lwrist 10.1987
lhand -3.12669 31.0895
lfingers 7.12502
lthumb 22.5924 59.7875
rfemur -1.27278 -11.1307 30.1587
rtibia 18.4644
rfoot -5.65941 13.6986
rtoes -47.6698
lfemur -40.2141 -1.43177 -12.4413
ltibia 59.2212
lfoot -5.36689 -4.14948
ltoes 5.81373
1162
root 9.32532 16.3236 3.03084 13.7179 510.184 367.955
lowerback 3.40453 9.07771 10.9388
upperback -7.77728 13.3793 -1.93137
thorax -7.35222 6.01711 -9.01546
lowerneck -0.856771 7.29267 -1.43723
upperneck 4.40812 9.72417 7.14101
head 1.08171 5.03522 2.58558
rclavicle -9.41245e-014 -5.1684e-015
rhumerus 58.6439 19.7474 -8.75263
rradius 93.1725
rwrist -9.44128
rhand -4.03822 66.5703
rfingers 7.12502
rthumb 21.7173 37.7685
lclavicle -9.41245e-014 -5.1684e-015
lhumerus -69.645 5.50017 84.6491
lradius 88.6215
lwrist 9.31381
lhand -6.28791 32.3488
lfingers 7.12502
lthumb 19.5556 61.3853
rfemur -2.15431 -12.0066 30.3303
rtibia 18.9338
rfoot -6.56348 13.6001
rtoes -50.646
lfemur -39.2935 -2.06898 -14.2856
ltibia 57.1866
lfoot -6.59355 -0.146482
ltoes 15.3198
1163
root 9.37396 16.3091 3.23095 12.6137 513.881 367.168
lowerback 3.33256 9.20721 10.277
upperback -7.53079 13.4645 -1.89611
thorax -7.15512 6.12287 -8.59222
lowerneck -1.00048 6.27122 -2.30079
upperneck 4.29318 7.98716 7.87534
head 1.08639 4.01005 2.98014
rclavicle 4.17945e-014 -3.57812e-015
rhumerus 55.7459 24.2024 -8.51211
rradius 95.1525
rwrist -9.03142
rhand -2.83914 63.8426
rfingers 7.12502
rthumb 22.8683 35.1785
lclavicle 4.17945e-014 -3.57812e-015
lhumerus -69.5087 5.04946 83.7179
lradius 89.0877
lwrist 8.06094
lhand -8.4016 31.4534
lfingers 7.12502
lthumb 17.5224 60.6838
rfemur -1.70794 -13.3815 31.0214
rtibia 18.1752
rfoot -6.94883 13.3228
rtoes -52.6809
lfemur -38.2951 -2.98877 -14.8177
ltibia 55.0136
lfoot -7.52622 -0.871765
ltoes 24.7044
1164
root 9.38449 16.3177 3.42838 11.6156 517.877 366.727
lowerback 3.5861 9.29371 10.5332
upperback -7.14716 13.5583 -2.01686
thorax -6.77254 6.18057 -8.84096
lowerneck -1.33047 4.91495 -2.64078
upperneck 3.89043 6.20246 8.09968
head 1.09863 3.12253 3.11998
rclavicle -9.22112e-014 -4.77083e-015
rhumerus 52.1734 28.4509 -9.4331
rradius 97.0988
rwrist -8.54706
rhand -1.59014 60.8687
rfingers 7.12502
rthumb 24.0665 32.3578
lclavicle -9.22112e-014 -4.77083e-015
lhumerus -68.6293 4.13655 82.9399
lradius 89.6592
lwrist 6.36708
lhand -9.92366 31.7776
lfingers 7.12502
lthumb 16.0572 61.1323
rfemur -1.50162 -14.8691 31.9388
rtibia 17.8418
rfoot -7.54086 12.0864
rtoes -53.3613
lfemur -37.6538 -4.13536 -14.691
ltibia 53.0796
lfoot -9.1423 -3.3557
ltoes 19.9577
